<svg width="303" height="252" xmlns="http://www.w3.org/2000/svg" xmlns:xlink="http://www.w3.org/1999/xlink" overflow="hidden"><defs><clipPath id="clip0"><rect x="253" y="276" width="303" height="252"/></clipPath></defs><g clip-path="url(#clip0)" transform="translate(-253 -276)"><path d="M0.805977-3.91796 166.245 30.115 164.633 37.9509-0.805977 3.91796ZM147.422 12.5061 173.214 35.6325 140.388 46.7003C138.294 47.4061 136.025 46.2812 135.32 44.1879 134.614 42.0945 135.739 39.8254 137.832 39.1196L164.161 30.2426 162.768 37.0111 142.081 18.4624C140.437 16.9876 140.299 14.4587 141.774 12.8139 143.248 11.1691 145.777 11.0313 147.422 12.5061Z" fill="#8FAADC" transform="matrix(1 0 0 -1 257 523.629)"/><path d="M3.56554-1.81299 89.0479 166.302 81.9168 169.928-3.56554 1.81299ZM91.0772 140.607 89.0805 175.192 59.9588 156.43C58.1017 155.234 57.5661 152.758 58.7625 150.901 59.9589 149.044 62.4343 148.509 64.2914 149.705L87.6487 164.753 81.4891 167.885 83.0905 140.146C83.2179 137.941 85.109 136.256 87.3144 136.383 89.5199 136.511 91.2046 138.402 91.0772 140.607Z" fill="#F4B183" transform="matrix(1 0 0 -1 431 488.175)"/><path d="M0 0 173.196 35.6288" stroke="#8FAADC" stroke-width="8" stroke-miterlimit="8" stroke-dasharray="24 8" fill="none" fill-rule="evenodd" transform="matrix(1 0 0 -1 346 348.629)"/><path d="M2.50595-3.11773 258.601 202.725 253.589 208.96-2.50595 3.11773ZM249.895 178.464 262.283 210.816 228.024 205.674C225.84 205.346 224.334 203.31 224.662 201.125 224.99 198.94 227.027 197.435 229.212 197.763L256.689 201.887 252.36 207.273 242.424 181.325C241.634 179.262 242.666 176.949 244.729 176.159 246.792 175.369 249.105 176.401 249.895 178.464Z" fill="#00B050" transform="matrix(1 0 0 -1 257 523.804)"/><path d="M0 0 89.0721 175.175" stroke="#F4B183" stroke-width="8" stroke-miterlimit="8" stroke-dasharray="24 8" fill="none" fill-rule="evenodd" transform="matrix(1 0 0 -1 257 523.175)"/></g></svg>